<svg width="382" height="18" viewBox="0 0 382 18" fill="none" xmlns="http://www.w3.org/2000/svg">
<path d="M0.188 0.632H5.908L16.358 10.928V0.632H21.418V17H16.358L5.248 6.154V17H0.188V0.632ZM36.9113 10.312L33.7433 4.174L30.7073 10.312H36.9113ZM40.3433 17L38.8033 14.008H28.8813L27.4073 17H22.1933L30.4653 0.632H37.1093L45.8653 17H40.3433ZM51.7632 4.35V7.562H59.5292C60.9812 7.562 61.5972 6.858 61.5972 5.956V5.934C61.5972 5.076 61.0252 4.35 59.5292 4.35H51.7632ZM51.7632 11.192V17H46.6372V0.632H59.8372C65.2932 0.632 66.9432 2.524 66.9432 4.878V5.142C66.9432 7.474 64.9852 8.398 63.9072 8.728C65.5792 9.168 67.0092 10.4 67.0092 12.49V14.888C67.0092 16.208 67.1852 16.626 67.3172 16.89V17H62.1032C61.9492 16.802 61.8612 16.538 61.8612 15.966V14.074C61.8612 12.072 60.9812 11.192 58.4512 11.192H51.7632ZM79.763 0.345999H80.709C91.005 0.345999 92.215 5.516 92.215 8.442V9.102C92.215 11.984 91.027 17.286 80.709 17.286H79.763C69.401 17.286 68.235 11.984 68.235 9.102V8.442C68.235 5.516 69.401 0.345999 79.763 0.345999ZM86.847 8.596C86.847 6.704 85.747 4.306 80.225 4.306C74.615 4.306 73.603 6.704 73.603 8.596V8.86C73.603 10.73 74.703 13.304 80.225 13.304C85.725 13.304 86.847 10.796 86.847 8.904V8.596ZM93.9243 17V0.632H104.77C114.252 0.632 116.32 4.702 116.32 8.376V9.036C116.32 12.556 114.362 17.022 104.792 17H93.9243ZM99.0503 4.504V13.062H104.374C110.182 13.062 110.952 10.51 110.952 8.838V8.706C110.952 7.034 110.248 4.504 104.374 4.504H99.0503ZM117.944 0.632H123.664L134.114 10.928V0.632H139.174V17H134.114L123.004 6.154V17H117.944V0.632ZM146.681 0.632V17H141.555V0.632H146.681ZM155.821 17V0.632H163.103L168.757 10.818L174.433 0.632H181.451V17H176.391V5.67L169.945 17H167.195L160.749 5.67V17H155.821ZM194.638 17.242H193.846C185.068 17.242 183.638 11.654 183.638 8.574V0.632H188.786V8.266C188.786 10.378 189.732 12.996 194.198 12.996C198.598 12.996 199.566 10.378 199.566 8.266V0.632H204.692V8.574C204.692 11.654 203.042 17.242 194.638 17.242ZM206.538 0.632H224.798V3.624L213.578 13.128H224.952V17H206.362V13.986L217.296 4.416H206.538V0.632ZM226.827 0.632H244.075V4.35H231.887V6.77H243.789V10.51H231.887V13.194H244.295V17H226.827V0.632ZM253.882 17.242C247.062 17.242 245.192 13.26 245.192 10.158V10.026H250.384C250.45 10.752 250.802 13.172 254.344 13.172H254.608C257.292 13.172 258.546 11.61 258.546 9.124V0.632H263.694V9.256C263.694 12.644 262.088 17.242 255.114 17.242H253.882ZM272.301 0.632H290.561V3.624L279.341 13.128H290.715V17H272.125V13.986L283.059 4.416H272.301V0.632ZM305.702 10.312L302.534 4.174L299.498 10.312H305.702ZM309.134 17L307.594 14.008H297.672L296.198 17H290.984L299.256 0.632H305.9L314.656 17H309.134ZM315.428 17V0.632H326.274C335.756 0.632 337.824 4.702 337.824 8.376V9.036C337.824 12.556 335.866 17.022 326.296 17H315.428ZM320.554 4.504V13.062H325.878C331.686 13.062 332.456 10.51 332.456 8.838V8.706C332.456 7.034 331.752 4.504 325.878 4.504H320.554ZM351.357 10.312L348.189 4.174L345.153 10.312H351.357ZM354.789 17L353.249 14.008H343.327L341.853 17H336.639L344.911 0.632H351.555L360.311 17H354.789ZM366.209 4.35V7.562H373.975C375.427 7.562 376.043 6.858 376.043 5.956V5.934C376.043 5.076 375.471 4.35 373.975 4.35H366.209ZM366.209 11.192V17H361.083V0.632H374.283C379.739 0.632 381.389 2.524 381.389 4.878V5.142C381.389 7.474 379.431 8.398 378.353 8.728C380.025 9.168 381.455 10.4 381.455 12.49V14.888C381.455 16.208 381.631 16.626 381.763 16.89V17H376.549C376.395 16.802 376.307 16.538 376.307 15.966V14.074C376.307 12.072 375.427 11.192 372.897 11.192H366.209Z" fill="#E3EBF0"/>
</svg>
