<svg width="2844" height="187" viewBox="0 0 2844 187" fill="none" xmlns="http://www.w3.org/2000/svg">
<path d="M0.8 0.199996H52.8L147.8 93.8V0.199996H193.8V149H147.8L46.8 50.4V149H0.8V0.199996ZM308.448 101.2V97.8L265.848 104.4C254.448 106.2 249.648 108.4 249.648 114.4V114.6C249.648 120.4 254.048 126.8 269.248 126.8C293.248 126.8 308.448 114 308.448 101.2ZM309.648 134.2C304.648 139.8 291.648 151 259.848 151H257.248C221.248 151 207.248 134.2 207.248 115.8V114.4C207.248 94.6 220.248 85.2 252.448 82.2L301.648 77.6C306.648 77.2 308.448 75.4 308.448 72C308.448 68 306.448 63.2 280.448 63.2H279.448C252.848 63.2 251.648 71.6 251.248 75.2H209.848V74.8C209.848 60.6 214.048 38.4 274.048 38.4H285.048C347.448 38.4 351.448 57.6 351.448 73.2V114.4C351.448 117.6 352.648 119.8 357.048 119.8H362.848V149H326.648C318.248 149 311.248 144.2 309.648 134.2ZM416.838 93.4V149H372.238V41.4H416.438V60.4C420.438 54.4 433.038 39 460.038 39H462.238C493.438 39 506.038 59.4 506.038 87V93.2H463.038C463.038 79.2 457.038 67.4 440.238 67.4H440.038C425.038 67.4 416.838 79.4 416.838 93.4ZM590.341 152C527.941 152 512.941 121.4 512.941 96.4V92.8C512.941 68 527.741 38.4 590.141 38.4H604.341C669.741 38.4 681.341 68.4 681.341 92.8V96.4C681.341 121.2 670.941 152 604.341 152H590.341ZM597.341 123C627.941 123 636.141 107.8 636.141 95.2V94.2C636.141 80.8 627.541 67 597.541 67H597.341C566.741 67 558.541 80.6 558.541 94.2V95.2C558.541 107.8 566.941 123 597.341 123ZM812.117 95.4V94.6C812.117 80.6 797.717 67 771.317 67H770.317C742.317 67 734.517 80.6 734.517 94.6V95.4C734.517 108.4 744.517 123.2 770.717 123.2H771.717C798.317 123.2 812.117 109.2 812.117 95.4ZM812.117 0.199996H856.917V149H812.517V132.6C809.517 136.6 793.917 151.6 759.317 151.6H756.717C708.917 151.6 688.917 126.4 688.917 96.2V92.4C688.917 63.6 706.717 38.8 754.917 38.8H758.117C791.717 38.8 807.117 51.4 812.117 55.8V0.199996ZM874.581 149V41.4H918.781V59.8C924.181 54.6 939.981 39 972.181 39H973.581C1010.98 39 1025.98 60.2 1025.98 81V149H980.981V95.8C980.981 79.4 971.781 69 952.181 69C932.181 69 919.181 80.6 919.181 98.2V149H874.581ZM1087.74 0.199996V31H1043.14V0.199996H1087.74ZM1087.74 41.4V149H1043.14V41.4H1087.74ZM1211.37 149H1166.77V41.4H1210.97V60C1215.57 55 1231.17 39 1262.17 39H1263.57C1286.57 39 1299.97 48.4 1306.57 60.4C1314.77 52.6 1331.97 39 1360.77 39H1362.37C1398.17 39 1411.97 60.8 1411.97 81V149H1366.97V95.8C1366.97 80.2 1360.17 69 1342.57 69C1323.57 69 1311.77 81.4 1311.77 98.2V149H1266.77V95.8C1266.77 80.2 1259.77 69 1242.17 69C1223.17 69 1211.37 81.4 1211.37 98.2V149ZM1577.29 41.4V149H1533.09V130.4C1527.69 135.4 1512.09 151.4 1480.89 151.4H1479.29C1442.29 151.4 1428.09 128.6 1428.09 108.4V41.4H1473.09V94.6C1473.09 110.4 1481.89 121.4 1500.69 121.4C1520.09 121.4 1532.69 109.6 1532.69 92.2V41.4H1577.29ZM1725.49 149H1590.29V123L1663.29 70.4H1590.29V41.4H1725.09V66.4L1648.69 119.2H1725.49V149ZM1812.48 63.4C1790.08 63.4 1780.08 70.2 1776.68 81.6H1848.68C1845.88 70.2 1835.08 63.4 1812.68 63.4H1812.48ZM1893.08 111.2C1893.08 125.8 1883.48 152 1819.28 152H1807.88C1750.48 152 1732.08 125.2 1732.08 97V92.6C1732.08 65 1748.48 38.4 1806.68 38.4H1818.88C1881.88 38.4 1893.68 70.2 1893.68 96.4V103.8H1775.88C1778.48 116.4 1789.28 124.8 1813.88 124.8H1814.08C1843.68 124.8 1848.48 113.8 1849.08 111H1893.08V111.2ZM1950.63 0.199996V31H1906.03V0.199996H1950.63ZM1891.43 155.2H1899.63C1904.03 155.2 1906.03 153.8 1906.03 147.6V41.4H1950.63V158.8C1950.63 178.6 1941.63 186.6 1930.23 186.6H1891.43V155.2ZM2028.66 0.199996H2194.66V27.4L2092.66 113.8H2196.06V149H2027.06V121.6L2126.46 34.6H2028.66V0.199996ZM2306.1 101.2V97.8L2263.5 104.4C2252.1 106.2 2247.3 108.4 2247.3 114.4V114.6C2247.3 120.4 2251.7 126.8 2266.9 126.8C2290.9 126.8 2306.1 114 2306.1 101.2ZM2307.3 134.2C2302.3 139.8 2289.3 151 2257.5 151H2254.9C2218.9 151 2204.9 134.2 2204.9 115.8V114.4C2204.9 94.6 2217.9 85.2 2250.1 82.2L2299.3 77.6C2304.3 77.2 2306.1 75.4 2306.1 72C2306.1 68 2304.1 63.2 2278.1 63.2H2277.1C2250.5 63.2 2249.3 71.6 2248.9 75.2H2207.5V74.8C2207.5 60.6 2211.7 38.4 2271.7 38.4H2282.7C2345.1 38.4 2349.1 57.6 2349.1 73.2V114.4C2349.1 117.6 2350.3 119.8 2354.7 119.8H2360.5V149H2324.3C2315.9 149 2308.9 144.2 2307.3 134.2ZM2488.09 95.4V94.6C2488.09 80.6 2473.69 67 2447.29 67H2446.29C2418.29 67 2410.49 80.6 2410.49 94.6V95.4C2410.49 108.4 2420.49 123.2 2446.69 123.2H2447.69C2474.29 123.2 2488.09 109.2 2488.09 95.4ZM2488.09 0.199996H2532.89V149H2488.49V132.6C2485.49 136.6 2469.89 151.6 2435.29 151.6H2432.69C2384.89 151.6 2364.89 126.4 2364.89 96.2V92.4C2364.89 63.6 2382.69 38.8 2430.89 38.8H2434.09C2467.69 38.8 2483.09 51.4 2488.09 55.8V0.199996ZM2645.56 101.2V97.8L2602.96 104.4C2591.56 106.2 2586.76 108.4 2586.76 114.4V114.6C2586.76 120.4 2591.16 126.8 2606.36 126.8C2630.36 126.8 2645.56 114 2645.56 101.2ZM2646.76 134.2C2641.76 139.8 2628.76 151 2596.96 151H2594.36C2558.36 151 2544.36 134.2 2544.36 115.8V114.4C2544.36 94.6 2557.36 85.2 2589.56 82.2L2638.76 77.6C2643.76 77.2 2645.56 75.4 2645.56 72C2645.56 68 2643.56 63.2 2617.56 63.2H2616.56C2589.96 63.2 2588.76 71.6 2588.36 75.2H2546.96V74.8C2546.96 60.6 2551.16 38.4 2611.16 38.4H2622.16C2684.56 38.4 2688.56 57.6 2688.56 73.2V114.4C2688.56 117.6 2689.76 119.8 2694.16 119.8H2699.96V149H2663.76C2655.36 149 2648.36 144.2 2646.76 134.2ZM2753.95 93.4V149H2709.35V41.4H2753.55V60.4C2757.55 54.4 2770.15 39 2797.15 39H2799.35C2830.55 39 2843.15 59.4 2843.15 87V93.2H2800.15C2800.15 79.2 2794.15 67.4 2777.35 67.4H2777.15C2762.15 67.4 2753.95 79.4 2753.95 93.4Z" fill="#212529"/>
</svg>
