<svg width="427" height="29" viewBox="0 0 427 29" fill="none" xmlns="http://www.w3.org/2000/svg">
<path d="M0.62 0.679999H8.42L22.67 14.72V0.679999H29.57V23H22.67L7.52 8.21V23H0.62V0.679999ZM46.7673 15.83V15.32L40.3773 16.31C38.6673 16.58 37.9473 16.91 37.9473 17.81V17.84C37.9473 18.71 38.6073 19.67 40.8873 19.67C44.4873 19.67 46.7673 17.75 46.7673 15.83ZM46.9473 20.78C46.1973 21.62 44.2473 23.3 39.4773 23.3H39.0873C33.6873 23.3 31.5873 20.78 31.5873 18.02V17.81C31.5873 14.84 33.5373 13.43 38.3673 12.98L45.7473 12.29C46.4973 12.23 46.7673 11.96 46.7673 11.45C46.7673 10.85 46.4673 10.13 42.5673 10.13H42.4173C38.4273 10.13 38.2473 11.39 38.1873 11.93H31.9773V11.87C31.9773 9.74 32.6073 6.41 41.6073 6.41H43.2573C52.6173 6.41 53.2173 9.29 53.2173 11.63V17.81C53.2173 18.29 53.3973 18.62 54.0573 18.62H54.9273V23H49.4973C48.2373 23 47.1873 22.28 46.9473 20.78ZM63.0256 14.66V23H56.3356V6.86H62.9656V9.71C63.5656 8.81 65.4556 6.5 69.5056 6.5H69.8356C74.5156 6.5 76.4056 9.56 76.4056 13.7V14.63H69.9556C69.9556 12.53 69.0556 10.76 66.5356 10.76H66.5056C64.2556 10.76 63.0256 12.56 63.0256 14.66ZM89.0511 23.45C79.6911 23.45 77.4411 18.86 77.4411 15.11V14.57C77.4411 10.85 79.6611 6.41 89.0211 6.41H91.1511C100.961 6.41 102.701 10.91 102.701 14.57V15.11C102.701 18.83 101.141 23.45 91.1511 23.45H89.0511ZM90.1011 19.1C94.6911 19.1 95.9211 16.82 95.9211 14.93V14.78C95.9211 12.77 94.6311 10.7 90.1311 10.7H90.1011C85.5111 10.7 84.2811 12.74 84.2811 14.78V14.93C84.2811 16.82 85.5411 19.1 90.1011 19.1ZM122.318 14.96V14.84C122.318 12.74 120.158 10.7 116.198 10.7H116.048C111.848 10.7 110.678 12.74 110.678 14.84V14.96C110.678 16.91 112.178 19.13 116.108 19.13H116.258C120.248 19.13 122.318 17.03 122.318 14.96ZM122.318 0.679999H129.038V23H122.378V20.54C121.928 21.14 119.588 23.39 114.398 23.39H114.008C106.838 23.39 103.838 19.61 103.838 15.08V14.51C103.838 10.19 106.508 6.47 113.738 6.47H114.218C119.258 6.47 121.568 8.36 122.318 9.02V0.679999ZM131.687 23V6.86H138.317V9.62C139.127 8.84 141.497 6.5 146.327 6.5H146.537C152.147 6.5 154.397 9.68 154.397 12.8V23H147.647V15.02C147.647 12.56 146.267 11 143.327 11C140.327 11 138.377 12.74 138.377 15.38V23H131.687ZM163.66 0.679999V5.3H156.97V0.679999H163.66ZM163.66 6.86V23H156.97V6.86H163.66ZM182.205 23H175.515V6.86H182.145V9.65C182.835 8.9 185.175 6.5 189.825 6.5H190.035C193.485 6.5 195.495 7.91 196.485 9.71C197.715 8.54 200.295 6.5 204.615 6.5H204.855C210.225 6.5 212.295 9.77 212.295 12.8V23H205.545V15.02C205.545 12.68 204.525 11 201.885 11C199.035 11 197.265 12.86 197.265 15.38V23H190.515V15.02C190.515 12.68 189.465 11 186.825 11C183.975 11 182.205 12.86 182.205 15.38V23ZM237.093 6.86V23H230.463V20.21C229.653 20.96 227.313 23.36 222.633 23.36H222.393C216.843 23.36 214.713 19.94 214.713 16.91V6.86H221.463V14.84C221.463 17.21 222.783 18.86 225.603 18.86C228.513 18.86 230.403 17.09 230.403 14.48V6.86H237.093ZM259.324 23H239.044V19.1L249.994 11.21H239.044V6.86H259.264V10.61L247.804 18.53H259.324V23ZM272.372 10.16C269.012 10.16 267.512 11.18 267.002 12.89H277.802C277.382 11.18 275.762 10.16 272.402 10.16H272.372ZM284.462 17.33C284.462 19.52 283.022 23.45 273.392 23.45H271.682C263.072 23.45 260.312 19.43 260.312 15.2V14.54C260.312 10.4 262.772 6.41 271.502 6.41H273.332C282.782 6.41 284.552 11.18 284.552 15.11V16.22H266.882C267.272 18.11 268.892 19.37 272.582 19.37H272.612C277.052 19.37 277.772 17.72 277.862 17.3H284.462V17.33ZM293.094 0.679999V5.3H286.404V0.679999H293.094ZM284.214 23.93H285.444C286.104 23.93 286.404 23.72 286.404 22.79V6.86H293.094V24.47C293.094 27.44 291.744 28.64 290.034 28.64H284.214V23.93ZM304.799 0.679999H329.699V4.76L314.399 17.72H329.909V23H304.559V18.89L319.469 5.84H304.799V0.679999ZM346.416 15.83V15.32L340.026 16.31C338.316 16.58 337.596 16.91 337.596 17.81V17.84C337.596 18.71 338.256 19.67 340.536 19.67C344.136 19.67 346.416 17.75 346.416 15.83ZM346.596 20.78C345.846 21.62 343.896 23.3 339.126 23.3H338.736C333.336 23.3 331.236 20.78 331.236 18.02V17.81C331.236 14.84 333.186 13.43 338.016 12.98L345.396 12.29C346.146 12.23 346.416 11.96 346.416 11.45C346.416 10.85 346.116 10.13 342.216 10.13H342.066C338.076 10.13 337.896 11.39 337.836 11.93H331.626V11.87C331.626 9.74 332.256 6.41 341.256 6.41H342.906C352.266 6.41 352.866 9.29 352.866 11.63V17.81C352.866 18.29 353.046 18.62 353.706 18.62H354.576V23H349.146C347.886 23 346.836 22.28 346.596 20.78ZM373.714 14.96V14.84C373.714 12.74 371.554 10.7 367.594 10.7H367.444C363.244 10.7 362.074 12.74 362.074 14.84V14.96C362.074 16.91 363.574 19.13 367.504 19.13H367.654C371.644 19.13 373.714 17.03 373.714 14.96ZM373.714 0.679999H380.434V23H373.774V20.54C373.324 21.14 370.984 23.39 365.794 23.39H365.404C358.234 23.39 355.234 19.61 355.234 15.08V14.51C355.234 10.19 357.904 6.47 365.134 6.47H365.614C370.654 6.47 372.964 8.36 373.714 9.02V0.679999ZM397.334 15.83V15.32L390.944 16.31C389.234 16.58 388.514 16.91 388.514 17.81V17.84C388.514 18.71 389.174 19.67 391.454 19.67C395.054 19.67 397.334 17.75 397.334 15.83ZM397.514 20.78C396.764 21.62 394.814 23.3 390.044 23.3H389.654C384.254 23.3 382.154 20.78 382.154 18.02V17.81C382.154 14.84 384.104 13.43 388.934 12.98L396.314 12.29C397.064 12.23 397.334 11.96 397.334 11.45C397.334 10.85 397.034 10.13 393.134 10.13H392.984C388.994 10.13 388.814 11.39 388.754 11.93H382.544V11.87C382.544 9.74 383.174 6.41 392.174 6.41H393.824C403.184 6.41 403.784 9.29 403.784 11.63V17.81C403.784 18.29 403.964 18.62 404.624 18.62H405.494V23H400.064C398.804 23 397.754 22.28 397.514 20.78ZM413.592 14.66V23H406.902V6.86H413.532V9.71C414.132 8.81 416.022 6.5 420.072 6.5H420.402C425.082 6.5 426.972 9.56 426.972 13.7V14.63H420.522C420.522 12.53 419.622 10.76 417.102 10.76H417.072C414.822 10.76 413.592 12.56 413.592 14.66Z" fill="#E3EBF0"/>
</svg>
